<svg width="76" height="76" viewBox="0 0 76 76" fill="none" xmlns="http://www.w3.org/2000/svg">
<path d="M65.7052 37.9999L69.2012 31.9579C69.6214 31.231 69.7356 30.3669 69.5189 29.5558C69.3021 28.7446 68.7721 28.0527 68.0454 27.6323L61.997 24.1363V17.1696C61.997 16.3297 61.6634 15.5243 61.0695 14.9304C60.4757 14.3365 59.6702 14.0029 58.8303 14.0029H51.8668L48.374 7.95775C47.9522 7.23232 47.2616 6.70218 46.4518 6.48208C46.0502 6.3732 45.6309 6.34513 45.2184 6.39948C44.8058 6.45384 44.4081 6.58955 44.0483 6.79875L38 10.2948L31.9517 6.79558C31.2244 6.37568 30.36 6.26188 29.5488 6.47924C28.7376 6.69659 28.046 7.22729 27.626 7.95458L24.13 14.0029H17.1665C16.3267 14.0029 15.5212 14.3365 14.9273 14.9304C14.3335 15.5243 13.9998 16.3297 13.9998 17.1696V24.1331L7.95151 27.6291C7.59062 27.8367 7.27429 28.1135 7.02072 28.4437C6.76714 28.774 6.58132 29.151 6.47391 29.5533C6.36651 29.9555 6.33964 30.375 6.39486 30.7877C6.45008 31.2004 6.5863 31.5981 6.79568 31.9579L10.2917 37.9999L6.79568 44.0419C6.37764 44.7695 6.26422 45.6329 6.48015 46.4438C6.69607 47.2547 7.22383 47.9474 7.94835 48.3708L13.9967 51.8667V58.8302C13.9967 59.6701 14.3303 60.4756 14.9242 61.0694C15.518 61.6633 16.3235 61.9969 17.1633 61.9969H24.13L27.626 68.0453C27.9064 68.5245 28.3066 68.9225 28.7875 69.2001C29.2683 69.4777 29.8131 69.6254 30.3683 69.6286C30.9193 69.6286 31.4672 69.4829 31.9548 69.2011L37.9968 65.7051L44.0452 69.2011C44.7723 69.6204 45.6361 69.7342 46.447 69.5175C47.2579 69.3008 47.9498 68.7714 48.3708 68.0453L51.8637 61.9969H58.8272C59.667 61.9969 60.4725 61.6633 61.0664 61.0694C61.6602 60.4756 61.9939 59.6701 61.9939 58.8302V51.8667L68.0422 48.3708C68.4025 48.1626 68.7182 47.8854 68.9713 47.5551C69.2244 47.2248 69.4099 46.8479 69.5172 46.4459C69.6246 46.0439 69.6516 45.6246 69.5969 45.2121C69.5421 44.7996 69.4066 44.402 69.198 44.0419L65.7052 37.9999ZM30.0802 22.1349C31.3404 22.1353 32.5488 22.6364 33.4396 23.5277C34.3304 24.4191 34.8306 25.6279 34.8302 26.8881C34.8298 28.1483 34.3287 29.3567 33.4374 30.2475C32.546 31.1383 31.3372 31.6385 30.077 31.6381C28.8168 31.6377 27.6084 31.1367 26.7176 30.2453C25.8268 29.3539 25.3266 28.1451 25.327 26.8849C25.3274 25.6247 25.8284 24.4163 26.7198 23.5255C27.6112 22.6347 28.82 22.1345 30.0802 22.1349ZM31.0302 52.5349L25.9635 48.7381L44.9635 23.4048L50.0302 27.2016L31.0302 52.5349ZM45.9135 53.8016C45.2895 53.8014 44.6717 53.6783 44.0953 53.4393C43.5189 53.2003 42.9952 52.8501 42.5541 52.4088C42.113 51.9674 41.7632 51.4435 41.5246 50.8669C41.286 50.2903 41.1633 49.6724 41.1635 49.0484C41.1637 48.4244 41.2868 47.8066 41.5258 47.2302C41.7648 46.6538 42.115 46.1301 42.5563 45.689C42.9977 45.2479 43.5216 44.8981 44.0982 44.6595C44.6748 44.4209 45.2927 44.2982 45.9167 44.2984C47.1769 44.2988 48.3853 44.7999 49.2761 45.6912C50.1669 46.5826 50.6671 47.7914 50.6667 49.0516C50.6663 50.3118 50.1652 51.5202 49.2739 52.411C48.3825 53.3018 47.1737 53.802 45.9135 53.8016Z" fill="#1D1D1D"/>
</svg>
